<svg class="icon icon--medium icon--type-shirt" stroke-width="1" aria-hidden="true" focusable="false" role="presentation" xmlns="http://www.w3.org/2000/svg" viewBox="0 0 16 16"><path fill="#fff" d="M15.27 5.1l-3.3-3.3a1 1 0 00-.7-.3h-1.2a1 1 0 00-.74.32l-.04.04c-.7.7-1.86.7-2.56 0l-.05-.04a1 1 0 00-.73-.32H4.76a1 1 0 00-.72.3L.74 5.1a1 1 0 000 1.4L2.4 8.16a1 1 0 001.36.05v5.29a1 1 0 001 1h6.5a1 1 0 001-1V8.22a1 1 0 001.35-.06l1.66-1.65a1 1 0 000-1.42zM12.9 7.45L11.26 5.8v7.69h-6.5V5.8L3.11 7.46 1.45 5.8l3.3-3.3.01.01V2.5h1.19l.07.07a2.81 2.81 0 003.98 0l.06-.07h1.2l3.3 3.3-1.66 1.66z"></path></svg>